<?xml version="1.0" encoding="iso-8859-1"?>
<!-- Generator: Adobe Illustrator 19.0.0, SVG Export Plug-In . SVG Version: 6.00 Build 0)  -->
<svg version="1.1" id="Capa_1" xmlns="http://www.w3.org/2000/svg" xmlns:xlink="http://www.w3.org/1999/xlink" x="0px" y="0px"
	 viewBox="0 0 512 512" style="enable-background:new 0 0 512 512;" xml:space="preserve">
<path style="fill:#F49E21;" d="M485.517,264.881H512v-70.621h-70.621c0,4.873-3.955,8.828-8.828,8.828
	c-2.339,0-4.582-0.927-6.241-2.586l-6.241-6.241H91.93l-6.241,6.241c-3.452,3.443-9.039,3.443-12.482,0
	c-1.66-1.66-2.586-3.902-2.586-6.241H0v70.621H485.517z M423.724,220.743c0-4.873,3.955-8.828,8.828-8.828s8.828,3.955,8.828,8.828
	v17.655c0,4.873-3.955,8.828-8.828,8.828s-8.828-3.955-8.828-8.828V220.743z M70.621,220.743c0-4.873,3.955-8.828,8.828-8.828
	c4.873,0,8.828,3.955,8.828,8.828v17.655c0,4.873-3.955,8.828-8.828,8.828c-4.873,0-8.828-3.955-8.828-8.828V220.743z"/>
<path style="fill:#FDBD40;" d="M61.793,476.743h388.414l35.31-211.862H26.483L61.793,476.743z M326.621,300.192h35.31v141.241
	h-35.31V300.192z M238.345,300.192h35.31v141.241h-35.31V300.192z M150.069,300.192h35.31v141.241h-35.31V300.192z"/>
<g>
	<path style="fill:#195C85;" d="M79.448,203.088c2.339,0,4.59-0.927,6.241-2.586l6.241-6.241L235.758,50.433
		c3.505-3.39,3.602-8.978,0.221-12.482c-3.39-3.505-8.978-3.602-12.482-0.221c-0.071,0.071-0.15,0.141-0.221,0.221L73.207,188.019
		c-3.443,3.452-3.443,9.039,0,12.482C74.867,202.161,77.109,203.088,79.448,203.088z"/>
	<path style="fill:#195C85;" d="M432.552,203.088c4.873,0,8.828-3.955,8.828-8.828c0-2.339-0.927-4.582-2.586-6.241L288.724,37.95
		c-3.505-3.39-9.092-3.293-12.482,0.221c-3.302,3.425-3.302,8.845,0,12.262l143.828,143.828l6.241,6.241
		C427.961,202.161,430.212,203.088,432.552,203.088z"/>
	<rect x="238.345" y="300.227" style="fill:#195C85;" width="35.31" height="141.241"/>
	<rect x="150.069" y="300.227" style="fill:#195C85;" width="35.31" height="141.241"/>
	<rect x="326.621" y="300.227" style="fill:#195C85;" width="35.31" height="141.241"/>
	<path style="fill:#195C85;" d="M79.448,247.226c4.873,0,8.828-3.955,8.828-8.828v-17.655c0-4.873-3.955-8.828-8.828-8.828
		c-4.873,0-8.828,3.955-8.828,8.828v17.655C70.621,243.271,74.575,247.226,79.448,247.226z"/>
	<path style="fill:#195C85;" d="M432.552,247.226c4.873,0,8.828-3.955,8.828-8.828v-17.655c0-4.873-3.955-8.828-8.828-8.828
		s-8.828,3.955-8.828,8.828v17.655C423.724,243.271,427.679,247.226,432.552,247.226z"/>
</g>
<g>
</g>
<g>
</g>
<g>
</g>
<g>
</g>
<g>
</g>
<g>
</g>
<g>
</g>
<g>
</g>
<g>
</g>
<g>
</g>
<g>
</g>
<g>
</g>
<g>
</g>
<g>
</g>
<g>
</g>
</svg>
